<svg width="300" height="225" fill="none" xmlns="http://www.w3.org/2000/svg"><g clip-path="url(#clip0)"><path d="M287.742 199.709l1.122-4.427a57.383 57.383 0 016.1-2.189l.142 2.058.575-2.267c2.57-.734 4.319-1.057 4.319-1.057s-2.362 8.982-7.317 15.85l-5.773 1.014 4.485.646a23.029 23.029 0 01-2.006 2.126c-7.207 6.691-15.235 9.76-17.93 6.856-2.696-2.903.962-10.681 8.17-17.371 2.234-2.074 5.041-3.738 7.85-5.048l.263 3.809z" fill="#E6E6E6"/><path d="M277.065 194.901l-1.327-4.371a57.273 57.273 0 014.09-5.026l1.185 1.688-.68-2.237c1.821-1.957 3.151-3.138 3.151-3.138s2.621 8.91 1.93 17.35l-4.418 3.852 4.173-1.764a23.26 23.26 0 01-.618 2.857c-2.712 9.452-7.997 16.229-11.805 15.137-3.809-1.093-4.697-9.641-1.986-19.094.841-2.93 2.383-5.806 4.112-8.379l2.193 3.125z" fill="#E6E6E6"/><path d="M299.324 218.934H125v.676h174.324v-.676z" fill="#3F3D56"/><path d="M8.182 88.52c-2.36-3.502-3.374-9.722 1.014-12.788 2.176-1.52 4.818-1.335 7.106-.666 3.163.926 5.977 2.812 8.41 4.923 2.807 2.435 5.21 5.289 7.58 8.144 2.34 2.819 4.71 5.605 7.197 8.292a170.127 170.127 0 0015.667 14.897 168.693 168.693 0 0017.075 12.562 160.744 160.744 0 009.05 5.404 80.678 80.678 0 008.855 4.39c4.042 1.625 10.968 3.897 14.552-.663 1.901-2.417 1.996-5.698 1.567-8.453-.519-3.332-1.828-6.441-3.117-9.478-5.996-14.126-12.061-28.218-18.093-42.326-1.407-3.293-2.857-6.573-4.026-9.976-1.095-3.187-2.006-6.546-2.028-10.016-.019-3.031.64-6.451 2.945-8.786 1.913-1.936 4.592-2.577 7.115-2.562 6.245.036 12.114 3.215 16.965 6.566 6.027 4.163 11.351 9.22 17.354 13.415 4.848 3.387 10.549 6.456 16.736 6.845 2.372.149 4.889-.168 7.05-1.463a9.75 9.75 0 004.217-5.673c.81-2.726.709-5.606.279-8.293a34.256 34.256 0 00-2.895-9.08c-2.925-6.25-6.922-11.85-10.364-17.783-1.688-2.909-3.336-5.907-4.388-9.152-.892-2.749-1.617-6.003-.736-8.983 1.817-6.15 9.203-3.836 12.949-2.06a59.952 59.952 0 017.319 4.262c.503.332.993-.55.492-.88a57.56 57.56 0 00-7.715-4.447c-2.283-1.045-4.796-1.957-7.415-1.906-2.2.042-4.417.963-5.708 2.931-1.528 2.329-1.423 5.34-1.012 7.838.544 3.303 1.842 6.355 3.339 9.26 1.576 3.057 3.375 5.982 5.184 8.893 3.616 5.817 7.576 11.702 9.38 18.493 1.261 4.75 2.058 12.17-3.076 15.56-2.279 1.505-5.072 1.723-7.594 1.44-3.048-.343-5.951-1.356-8.662-2.628-12.642-5.934-21.064-18.254-34.542-22.81-4.582-1.55-10.995-2.538-15.028 1.65-2.094 2.177-2.935 5.198-3.123 8.037-.226 3.4.483 6.747 1.448 9.896a97.89 97.89 0 003.73 9.708c1.51 3.54 3.023 7.08 4.538 10.618l9.184 21.483 4.562 10.674c1.393 3.257 2.886 6.531 3.612 10.063.594 2.891.763 6.87-1.784 9.196-2.023 1.848-4.978 1.762-7.346 1.333-3.067-.555-5.951-1.769-8.697-3.109-3.166-1.545-6.249-3.259-9.275-5.042a164.083 164.083 0 01-17.9-12.222 170.547 170.547 0 01-16.232-14.476 167.925 167.925 0 01-7.468-8.083c-2.477-2.864-4.802-5.864-7.367-8.648-2.32-2.52-4.859-4.854-7.811-6.63-2.465-1.484-5.38-2.724-8.411-2.627a7.625 7.625 0 00-5.599 2.687 9.403 9.403 0 00-2.076 5.955c.016 2.444.77 4.825 2.163 6.832.337.5 1.192-.035.854-.537zM46.83 7.022H6.35v35.941h40.48V7.022z" fill="#E6E6E6"/><path d="M46.83 71.716H6.35v35.942h40.48V71.716zM176.897 7.022h-40.48v35.941h40.48V7.022z" fill="#00BAFC"/><path d="M176.897 71.716h-40.48v35.942h40.48V71.716z" fill="#E6E6E6"/><path d="M112.323 7.022h-40.48v35.941h40.48V7.022zM112.323 71.716h-40.48v35.942h40.48V71.716z" fill="#00BAFC"/><path d="M71.96 13.732a6.757 6.757 0 100-13.513 6.757 6.757 0 000 13.513zM137.162 13.732a6.757 6.757 0 100-13.513 6.757 6.757 0 000 13.513zM6.757 78.597a6.757 6.757 0 100-13.514 6.757 6.757 0 000 13.514zM71.96 78.597a6.757 6.757 0 100-13.514 6.757 6.757 0 000 13.514z" fill="#3F3D56"/><path d="M229.493 215.468s-9.443.726-8.474 4.116c.968 3.39 8.474 2.906 8.474 2.906s5.812-.485 8.959.484c3.148.969 6.78 0 7.022-1.695s-1.695-2.906-1.695-2.906l-1.21-2.421-13.076-.484z" fill="#2F2E41"/><path d="M204.675 139.801l-.969 3.874s-4.358 8.959.969 8.959 3.39-8.232 3.39-8.232l.484-3.874-3.874-.727zM251.406 136.653l.969 3.875s4.358 8.959-.969 8.959-3.389-8.233-3.389-8.233l-.485-3.874 3.874-.727zM226.225 70.793c5.75 0 10.411-4.661 10.411-10.412 0-5.75-4.661-10.411-10.411-10.411-5.751 0-10.412 4.661-10.412 10.411s4.661 10.412 10.412 10.412z" fill="#9F616A"/><path d="M223.077 68.372s1.21 5.569.484 8.232c-.726 2.664 15.012-.484 15.012-.484s-5.569-9.201-5.327-9.443l-10.169 1.695z" fill="#9F616A"/><path d="M225.498 74.667s-4.358-1.21-5.811.242c-1.453 1.453-9.928 5.57-9.928 5.57l5.812 35.593 25.182-5.569 4.358-33.656s-6.866-4.027-8.034-3.224c-1.167.802-11.579 1.044-11.579 1.044z" fill="#D0CDE1"/><path d="M211.697 80.72l-1.163-.623s-4.407.866-4.164 4.256c.242 3.39 1.21 22.276 1.21 22.276l-3.874 34.141 7.022 1.21 7.022-28.571-6.053-32.688zM244.385 77.573l1.162-.623s4.407.865 4.164 4.255c-.242 3.39-1.21 22.276-1.21 22.276l3.874 34.141-7.022 1.211-7.022-28.572 6.054-32.688z" fill="#D0CDE1"/><path d="M215.813 112.44l-.969 14.77-3.147 29.54 4.6 61.26 15.981.484-4.843-58.354 4.843-20.097 15.829-.586s1.12-23.143-7.839-30.407l-24.455 3.39z" fill="#2F2E41"/><path d="M233.246 136.653l-2.542 53.391-.848 26.998 14.287 1.452 3.604-79.397-5.542-5.591-8.959 3.147zM230.825 46.58s-9.443-1.21-12.107 3.39c0 0-.726 3.39-3.147 4.6-2.422 1.21.484 5.327 1.21 6.538.727 1.21 2.664 8.232.485 9.927-2.18 1.695 3.874 6.538 3.874 6.538s2.905 3.874.484 6.78c-2.421 2.905 3.148 3.874 3.148 3.874s-1.211 8.232.968 6.053c0 0 .969 18.644 10.17 7.022 9.201-11.623 13.075-17.192 9.201-21.792-3.874-4.6-.969-8.717-.969-8.717s1.211-2.421-1.452-6.053c-2.664-3.632-2.664-18.16-11.865-18.16zM217.145 216.921s-9.444.726-8.475 4.116c.968 3.39 8.475 2.906 8.475 2.906s5.811-.485 8.958.484c3.148.968 6.78 0 7.022-1.695s-1.695-2.906-1.695-2.906l-1.21-2.421-13.075-.484z" fill="#2F2E41"/></g><defs><clipPath id="clip0"><path fill="#fff" transform="translate(0 .219)" d="M0 0h300v224.593H0z"/></clipPath></defs></svg>