<svg width="300" height="234" fill="none" xmlns="http://www.w3.org/2000/svg"><g clip-path="url(#clip0)"><path opacity=".8" d="M273.693 221.295H15.522V54.314a5.266 5.266 0 015.266-5.266h247.639a5.267 5.267 0 015.266 5.266v166.981z" fill="url(#paint0_linear)"/><path d="M24.33 52.08h240.537a5.267 5.267 0 015.266 5.267v163.948H19.078V57.35a5.266 5.266 0 015.253-5.27z" fill="#fff"/><path d="M262.051 61.926H27.161v154.066h234.89V61.926z" fill="#F5F5F5"/><path opacity=".8" d="M261.954 69.405H28.06v138.612h233.894V69.405z" fill="#E0E0E0"/><path d="M261.954 62.04H28.06v7.365h233.894V62.04z" fill="#F5F5F5"/><path d="M33.076 67.399a1.787 1.787 0 100-3.573 1.787 1.787 0 000 3.573z" fill="#FF5252"/><path d="M37.986 67.399a1.787 1.787 0 100-3.573 1.787 1.787 0 000 3.573z" fill="#FF0"/><path d="M42.899 67.399a1.787 1.787 0 100-3.573 1.787 1.787 0 000 3.573z" fill="#69F0AE"/><path opacity=".8" d="M280.915 232.367c-14.371 1.09-261.177.667-269.8 0C-.19 226.918.017 205.774.017 205.774l113.187-.757.38 6.436h48.435l1.893-5.666h125.433s2.493 19.384-8.43 26.58z" fill="url(#paint1_linear)"/><path d="M287.508 207.477H164.522a3.78 3.78 0 01.575 4.044 3.778 3.778 0 01-3.442 2.202h-46.954a3.778 3.778 0 01-2.867-6.246H1.704s-.19 18.361 10.978 23.107c8.516.567 252.305.947 266.5 0 10.802-6.263 8.326-23.107 8.326-23.107z" fill="#F5F5F5"/><path d="M27.257 212.966a1.513 1.513 0 100-3.026 1.513 1.513 0 000 3.026zM31.8 212.966a1.513 1.513 0 100-3.026 1.513 1.513 0 000 3.026zM36.34 212.966a1.513 1.513 0 100-3.026 1.513 1.513 0 000 3.026z" fill="#E0E0E0"/><path d="M139.944 126.099h10.729a46.493 46.493 0 0146.495 46.495v33.799H93.45v-33.799a46.494 46.494 0 0146.494-46.495z" fill="#00BAFC"/><path d="M145.411 108.021c26.179 0 47.401-21.222 47.401-47.401 0-26.18-21.222-47.402-47.401-47.402-26.18 0-47.402 21.223-47.402 47.402 0 26.179 21.222 47.401 47.402 47.401z" fill="#333"/><path opacity=".1" d="M138.431 112.294h13.709a9.662 9.662 0 019.665 9.666v9.419a14.778 14.778 0 01-14.778 14.778h-3.496c-3.92 0-7.679-1.557-10.45-4.329a14.775 14.775 0 01-4.329-10.449v-9.406a9.669 9.669 0 019.666-9.666l.013-.013z" fill="#000"/><path d="M128.752 111.327h33.07v19.098a14.778 14.778 0 01-14.778 14.779h-3.513c-3.92 0-7.679-1.557-10.45-4.329a14.775 14.775 0 01-4.329-10.45v-19.098z" fill="#FDB797"/><path opacity=".1" d="M128.812 116.097a47.603 47.603 0 0033.07.09v-4.06h-33.07v3.97z" fill="#000"/><path d="M145.411 118.31c26.179 0 47.401-21.222 47.401-47.401 0-26.18-21.222-47.402-47.401-47.402-26.18 0-47.402 21.222-47.402 47.401 0 26.18 21.222 47.402 47.402 47.402z" fill="#FDB797"/><path opacity=".1" d="M100.092 54.13h90.39s-7.716-36.499-41.889-34.19c-34.172 2.31-48.501 34.19-48.501 34.19z" fill="#000"/><path d="M100.092 52.904h90.39s-7.716-36.5-41.889-34.173c-34.172 2.326-48.501 34.173-48.501 34.173z" fill="#333"/><path d="M98.989 77.158c2.435 0 4.409-3.702 4.409-8.27 0-4.566-1.974-8.268-4.409-8.268-2.435 0-4.41 3.702-4.41 8.269s1.975 8.269 4.41 8.269zM191.585 77.158c2.436 0 4.41-3.702 4.41-8.27 0-4.566-1.974-8.268-4.41-8.268-2.435 0-4.409 3.702-4.409 8.269s1.974 8.269 4.409 8.269z" fill="#FDB797"/><path d="M107.108 28.72c1.083-3.54 3.053-6.923 6.093-9.032 2.309-1.604 5.073-2.374 7.722-3.313a59.031 59.031 0 0011.226-5.37c4.019-2.476 7.795-5.46 12.222-7.096 7.615-2.816 16.098-1.293 23.96.727 1.937.496 3.897 1.036 5.603 2.083 1.976 1.21 3.493 3.03 4.973 4.813l12.478 15.051c1.144 1.377 2.293 2.77 3.1 4.37a15.03 15.03 0 011.42 4.93c.333 2.76.073 5.685-1.333 8.088-2.11 3.603-6.46 5.413-10.629 5.58-4.17.166-8.263-1.043-12.269-2.217-12.918-3.783-25.997-7.309-39.395-8.879a111.13 111.13 0 00-20.048-.65c-2.1.137-4.873 1.1-6.149-1.04-1.104-1.856.456-6.185 1.026-8.045z" fill="#333"/><path opacity=".05" d="M113.754 169.591v36.802M177.694 169.591v36.802" stroke="#000" stroke-width="4" stroke-miterlimit="10"/><path opacity=".8" d="M300 66.979h-59.48l-20.075 16.738V66.979h-13.381V.829H300v66.15z" fill="url(#paint2_linear)"/><path d="M298.74 1.616h-90.416v63.257h90.416V1.616z" fill="#fff"/><path d="M290.148 10.915h-71.642v1.88h71.642v-1.88zM267.76 19.38h-49.254v1.88h49.254v-1.88zM277.613 27.843h-59.107v1.88h59.107v-1.88z" fill="#E0E0E0"/><path d="M265.97 36.31h-47.464v1.879h47.464v-1.88zM290.148 44.771h-71.642v1.88h71.642v-1.88z" fill="#00BAFC"/><path d="M290.148 53.237h-71.642v1.88h71.642v-1.88z" fill="#E0E0E0"/><path d="M223.792 63.643v16.731l18.401-18.404-18.401 1.673z" fill="#fff"/></g><defs><linearGradient id="paint0_linear" x1="144.607" y1="221.295" x2="144.607" y2="49.054" gradientUnits="userSpaceOnUse"><stop stop-color="gray" stop-opacity=".25"/><stop offset=".54" stop-color="gray" stop-opacity=".12"/><stop offset="1" stop-color="gray" stop-opacity=".1"/></linearGradient><linearGradient id="paint1_linear" x1="169221" y1="22573.1" x2="169221" y2="20218.2" gradientUnits="userSpaceOnUse"><stop stop-color="gray" stop-opacity=".25"/><stop offset=".54" stop-color="gray" stop-opacity=".12"/><stop offset="1" stop-color="gray" stop-opacity=".1"/></linearGradient><linearGradient id="paint2_linear" x1="70901.9" y1="20614.1" x2="70901.9" y2=".83" gradientUnits="userSpaceOnUse"><stop stop-color="gray" stop-opacity=".25"/><stop offset=".54" stop-color="gray" stop-opacity=".12"/><stop offset="1" stop-color="gray" stop-opacity=".1"/></linearGradient><clipPath id="clip0"><path fill="#fff" transform="translate(0 .83)" d="M0 0h300v232.198H0z"/></clipPath></defs></svg>