<svg width="300" height="260" fill="none" xmlns="http://www.w3.org/2000/svg"><g clip-path="url(#clip0)"><path d="M163.752 72.913c15.256 0 27.623-12.367 27.623-27.623s-12.367-27.624-27.623-27.624-27.624 12.368-27.624 27.624c0 15.256 12.368 27.623 27.624 27.623z" fill="#A0616A"/><path d="M143.134 59.102s5.204 39.233-2.802 43.637c-8.007 4.403 47.64 4.804 47.64 4.804s-12.41-34.03-6.806-44.438l-38.032-4.003z" fill="#A0616A"/><path d="M228.606 107.741l-4.628 21.074-9.785 44.585-.293 2.442-3.377 28.267-2.247 18.778-1.506 12.615a1012.026 1012.026 0 01-15.796 7.956s-.571-2.863-1.491-6.525c-6.428 1.927-18.32 5.124-28.399 5.762 3.67 4.091 5.357 7.934 3.069 10.77-6.904 8.55-35.408-9.361-45.378-16.04a27.012 27.012 0 00-.263 4.831l-7.629-5.868.755-13.501 1.273-22.843 1.601-28.646a29.989 29.989 0 01-1.266-3.768c-2.337-8.309-5.173-24.901-7.348-38.815a1363.441 1363.441 0 01-3.399-23.072l42.233-18.662c3.002 6.96 17.017 9.053 17.017 9.053 11.611-.8 20.713-6.924 20.713-6.924l46.144 18.531z" fill="#D0CDE1"/><path d="M194.178 235.453s-1.788.612-4.695 1.48c-6.428 1.927-18.32 5.123-28.399 5.762-8.677.556-16.01-.781-17.351-6.442-.575-2.434.24-4.437 2.017-6.082 5.304-4.917 19.158-6.679 30.146-7.284a201.62 201.62 0 018.362-.278c4.056-.052 6.716.03 6.716.03l.064.248 3.14 12.566z" fill="#A0616A"/><path d="M140.771 19.16l-5.164-2.067s10.799-11.89 25.824-10.856l-4.226-4.652s10.33-4.136 19.721 6.72c4.936 5.707 10.648 12.414 14.208 19.97h5.532l-2.309 5.084 8.08 5.083-8.293-.913a28.41 28.41 0 01.225 8.43 10.909 10.909 0 01-3.995 7.137s-6.405-13.258-6.405-15.326v5.17s-5.165-4.653-5.165-7.755l-2.817 3.619-1.409-5.686-17.373 5.686 2.817-4.652-10.799 1.55 4.226-5.686s-12.208 6.72-12.678 12.407c-.469 5.686-4.042 11.074-4.042 11.074s-9.574-26.582 4.042-34.337z" fill="#2F2E41"/><path d="M258.631 204.623c-2.813 3.051-9.785 7.645-18.237 12.618a451.46 451.46 0 01-9.906 5.646c-8.148 4.519-16.679 8.997-23.718 12.614-9.158 4.707-15.796 7.957-15.796 7.957s-.571-2.863-1.491-6.525c-1.232-4.903-3.088-11.24-5.023-14.046-.067-.097-.135-.187-.202-.278-.564-.74-1.131-1.172-1.691-1.172l27.956-17.328 12.08-7.491-8.703-20.776-10.917-26.063 6.589-20.964 6.623-21.074h12.411s4.11 8.97 9.365 21.479a848.225 848.225 0 012.423 5.834c10.811 26.295 24.289 63.014 18.237 69.569z" fill="#D0CDE1"/><path d="M164.153 253.465c-6.904 8.55-35.408-9.361-45.378-16.04a162.508 162.508 0 01-3.463-2.374l9.12-12.164 2.889-3.85s2.585 1.371 6.405 3.602c.139.083.278.166.421.248 3.294 1.935 7.43 4.463 11.603 7.284 5.759 3.896 11.581 8.339 15.334 12.524 3.67 4.091 5.357 7.934 3.069 10.77z" fill="#A0616A"/><path d="M133.726 222.64a18.028 18.028 0 00-3.043.247c-8.636 1.484-11.183 9.301-11.908 14.538a27.012 27.012 0 00-.263 4.831l-7.629-5.868-2.78-2.137c-6.69-2.333-12.652-6.476-17.82-11.364a89.53 89.53 0 01-12.002-14.233 125.472 125.472 0 01-9.286-15.927 11.713 11.713 0 01-.162-9.936l9.448-21.055 13.808-30.773c.102-.732.213-1.448.335-2.148 2.738-15.702 10.074-22.674 10.074-22.674h5.605l3.749 22.674 4.658 28.169-3.264 10.646-7.543 24.586 7.208 7.829 20.815 22.595z" fill="#D0CDE1"/><path d="M140.069 157.007l4.791 5.59c1.78-.34 3.639-.739 5.554-1.187l-1.376-4.403 3.365 3.925c20.284-4.988 45.425-14.688 45.425-14.688s-27.143 1.99-47.409-2.437c-8.967-1.959-18.193 2.486-21.873 10.894-2.138 4.888-1.803 9.122 5.783 9.122a50.117 50.117 0 007.645-.719l-1.905-6.097z" fill="#00BAFC"/><path d="M249.297 248.882v2.28a5.027 5.027 0 01-.707 2.581 5.047 5.047 0 01-4.338 2.464H76.508a5.052 5.052 0 01-4.34-2.464 5.016 5.016 0 01-.706-2.581v-2.28a5.041 5.041 0 015.046-5.045h9.669v-1.063a.214.214 0 01.061-.149.21.21 0 01.15-.061h5.044a.207.207 0 01.21.21v1.063h3.152v-1.063a.213.213 0 01.062-.149.208.208 0 01.148-.061h5.045a.205.205 0 01.149.061c.02.02.035.043.046.068.01.026.016.053.016.081v1.063h3.155v-1.063a.205.205 0 01.062-.149.197.197 0 01.068-.045.2.2 0 01.08-.016h5.045a.205.205 0 01.149.061c.02.02.035.043.046.068.01.026.016.053.016.081v1.063h3.151v-1.063c0-.028.006-.055.016-.081a.207.207 0 01.195-.129h5.045a.2.2 0 01.08.016c.026.01.049.026.068.045a.205.205 0 01.062.149v1.063h3.152v-1.063a.205.205 0 01.061-.149.218.218 0 01.149-.061h5.045a.211.211 0 01.149.061.218.218 0 01.061.149v1.063h3.156v-1.063a.205.205 0 01.061-.149.218.218 0 01.149-.061h5.045a.211.211 0 01.149.061.218.218 0 01.061.149v1.063h3.152v-1.063a.205.205 0 01.061-.149.211.211 0 01.149-.061h39.518a.205.205 0 01.149.061.204.204 0 01.061.149v1.063h3.156v-1.063a.205.205 0 01.061-.149.211.211 0 01.149-.061h5.045c.056 0 .109.022.148.062a.21.21 0 01.063.148v1.063h3.151v-1.063c0-.028.006-.055.016-.081a.221.221 0 01.046-.068.205.205 0 01.149-.061h5.044c.028 0 .056.005.081.016.026.01.049.026.068.045.02.02.035.043.046.068.01.026.016.053.016.081v1.063h3.152v-1.063a.204.204 0 01.129-.194.205.205 0 01.081-.016h5.045a.211.211 0 01.149.061.218.218 0 01.061.149v1.063h3.156v-1.063c0-.028.005-.055.015-.081a.24.24 0 01.046-.068.218.218 0 01.149-.061h5.045a.207.207 0 01.206.21v1.063h3.156v-1.063a.205.205 0 01.061-.149.211.211 0 01.149-.061h5.045a.205.205 0 01.149.061.204.204 0 01.061.149v1.063h3.152v-1.063c0-.028.006-.055.016-.081a.221.221 0 01.046-.068.197.197 0 01.068-.045.2.2 0 01.08-.016h5.045a.205.205 0 01.149.061c.02.02.035.043.046.068.01.026.016.053.016.081v1.063h14.714a5.043 5.043 0 015.045 5.045z" fill="#3F3D56"/><path d="M298.074 252.991H22.727v.752h275.347v-.752zM235.79 152.856h-62.523v-1.288h-28.351v1.288H82.135a4.23 4.23 0 00-4.23 4.229v85.614a4.231 4.231 0 004.23 4.229H235.79a4.231 4.231 0 002.991-1.238 4.231 4.231 0 001.238-2.991v-85.614a4.22 4.22 0 00-1.238-2.99 4.237 4.237 0 00-2.991-1.239z" fill="#3F3D56"/><path d="M159.086 192.137a9.391 9.391 0 000-18.782 9.391 9.391 0 100 18.782z" stroke="#D0CDE1" stroke-width="2" stroke-miterlimit="10"/><path d="M156.08 195.518a9.391 9.391 0 100-18.782 9.391 9.391 0 000 18.782zM40.737 249.196H30.22v10.518h10.518v-10.518z" fill="#D0CDE1"/><path d="M34.353 240.932v12.772h12.772v-12.772H34.353zm12.216 12.216H34.905v-11.66h11.664v11.66z" fill="#3F3D56"/><path d="M284.155 249.196h-10.518v10.518h10.518v-10.518z" fill="#D0CDE1"/><path d="M277.77 240.932v12.772h12.772v-12.772H277.77zm12.216 12.216h-11.663v-11.66h11.663v11.66z" fill="#3F3D56"/><path d="M35.529 87.252c16.46 0 29.803-13.343 29.803-29.803S51.99 27.645 35.53 27.645 5.725 40.988 5.725 57.449c0 16.46 13.343 29.803 29.803 29.803z" fill="#00BAFC"/><path d="M45.915 22.032a32.214 32.214 0 00-8.129 0 31.692 31.692 0 00-26.15 22.055 31.264 31.264 0 00-1.373 8.137c-.014.384-.023.772-.023 1.16a31.642 31.642 0 0033.62 31.547 31.614 31.614 0 002.055-62.9zm5.83 60.425h-.005a30.39 30.39 0 01-7.88 1.567c-.664.045-1.337.067-2.01.067a30.744 30.744 0 01-30.684-31.867A30.75 30.75 0 0141.85 22.677a30.709 30.709 0 019.895 59.78z" fill="#3F3D56"/><path d="M42.302 24.484H41.4v6.322h.903v-6.322zM21.734 32.63l-.639.638 4.47 4.47.64-.639-4.471-4.47zM12.95 52.933v.903h6.322v-.903H12.95zM21.095 73.5l.639.64 4.47-4.47-.638-.64-4.47 4.47zM57.497 37.1l.638.638 4.47-4.47-.638-.639-4.47 4.47zM64.43 52.933v.903h6.321v-.903H64.43zM58.135 69.03l-.638.64 4.47 4.47.639-.64-4.47-4.47zM42.302 75.963H41.4v6.322h.903v-6.322zM43.205 51.578a2.258 2.258 0 10-2.71 3.613 2.258 2.258 0 002.71-3.613zm-1.355 3.161a1.358 1.358 0 01-1.354-1.355 1.353 1.353 0 111.355 1.355zM45.915 14.098h-8.129v8.128h8.129v-8.128z" fill="#3F3D56"/><path d="M41.85 15.452c5.986 0 10.838-1.718 10.838-3.838S47.836 7.776 41.85 7.776c-5.985 0-10.837 1.718-10.837 3.838s4.852 3.838 10.837 3.838zM43.205 36.225h-2.71v15.353h2.71V36.225zM84.896 83.619H0v.903h84.896v-.903z" fill="#3F3D56"/><path d="M56.57 226.106c.35 12.002-6.662 16.4-15.463 16.657a25.023 25.023 0 01-1.823-.009c-7.96-.331-14.26-4.556-14.585-15.717-.338-11.551 14-26.56 15.075-27.67l.002-.001.062-.063s16.381 14.802 16.732 26.803z" fill="#D0CDE1"/><path d="M40.473 240.944l5.59-8.313-5.578 9.208.011.935c-.408.003-.812-.004-1.212-.02l.277-12.025-.007-.093.01-.018.026-1.136-6.122-8.889 6.115 8.038.022.24.21-9.085-5.289-9.216 5.303 7.62-.055-18.823v-.062l.002.061.351 14.835 4.82-6.026-4.804 7.304.105 8.127 4.435-7.932-4.419 9.126.059 4.519 6.45-11.048-6.43 12.625.13 10.048z" fill="#3F3D56"/><path d="M299.987 226.106c.351 12.002-6.662 16.4-15.462 16.657a25.082 25.082 0 01-1.823-.009c-7.96-.331-14.26-4.556-14.586-15.717-.337-11.551 14-26.56 15.076-27.67l.002-.001.061-.063s16.382 14.802 16.732 26.803z" fill="#D0CDE1"/><path d="M283.891 240.944l5.591-8.313-5.579 9.208.011.935c-.408.003-.812-.004-1.212-.02l.277-12.025-.008-.093.011-.018.026-1.136-6.122-8.889 6.115 8.038.022.24.209-9.085-5.288-9.216 5.303 7.62-.055-18.823v-.062l.002.061.351 14.835 4.819-6.026-4.804 7.304.106 8.127 4.434-7.932-4.418 9.126.058 4.519 6.45-11.048-6.43 12.625.131 10.048z" fill="#3F3D56"/></g><defs><clipPath id="clip0"><path fill="#fff" transform="translate(0 .812)" d="M0 0h300v258.903H0z"/></clipPath></defs></svg>