<svg width="300" height="172" fill="none" xmlns="http://www.w3.org/2000/svg"><g clip-path="url(#clip0)"><path opacity=".1" d="M180.346 124.047c5.796-.33 12.986-4.261 18.577-6a881.96 881.96 0 0119.93-5.924 867.004 867.004 0 0170.403-16.888c2.213-.435 4.43-.86 6.65-1.274a47.064 47.064 0 00-15.54-18.664c.172-1.636.26-3.28.262-4.924 0-25.999-20.777-47.075-46.416-47.075a45.679 45.679 0 00-22.526 5.914C193.539 17.275 169.854 10.05 143.94 10.05c-36.824 0-69.15 14.588-87.467 36.556L142.56 61.15l52.799 8.916c-60.191 1.796-120.569 3.582-180.587-.635a47.575 47.575 0 00-6.85 60.052c0 .942.04 1.875.11 2.801 1.53.438 3.006.863 4.33 1.141a950.462 950.462 0 0064.19 11.276c-15.868 9.784-35.192 11.169-53.496 15.312 8.864 7.317 20.9 11.801 34.164 11.801h197.497c21.385 0 38.719-14.887 38.719-33.254a47.258 47.258 0 006.294-17.279c-39.572 3.821-79.636.503-119.384 2.766z" fill="#00BAFC"/><path opacity=".1" d="M300 113.458a47.2 47.2 0 00-19.93-38.659c.171-1.635.258-3.278.262-4.922 0-25.998-20.787-47.067-46.416-47.067a45.702 45.702 0 00-22.529 5.911c-18.147-11.942-41.835-19.17-67.749-19.17-42.152 0-78.435 19.13-94.526 46.564a46.047 46.047 0 00-2.701-.082C20.78 56.033-.005 77.11-.005 103.108a47.342 47.342 0 007.636 25.875c0 23.391 22.078 42.354 49.3 42.354h197.503c21.382 0 38.716-14.89 38.716-33.257a47.336 47.336 0 006.85-24.622z" fill="#00BAFC"/><path d="M245.004 84.617a2.92 2.92 0 00-1.28-.56c-.491-.114-.991-.184-1.49-.263l-6.456-.931a7.605 7.605 0 00-1.977-.105 2.507 2.507 0 00-1.721.892 1.349 1.349 0 00-.299.839c.036.307.136.604.294.87.063.125.116.254.16.386.062.296.139.59.231.878.028.063.066.121.11.173a.332.332 0 010 .045c-.071.362.157.74.055 1.088-.089.3-.38.48-.564.73a1.102 1.102 0 00-.026 1.208c.197.304.553.512.656.86.133.46-.228.902-.551 1.257a19.56 19.56 0 00-1.642 2.069c-.14.178-.231.39-.262.616-.029.456.409.857.333 1.311-.06.357-.409.574-.71.787-1.115.734-2.009 1.914-2.098 3.249a11.384 11.384 0 00-2.539-5.77c-.375-.45-.787-.904-.941-1.476-.058-.228-.068-.472-.147-.692-.262-.695-1.096-.994-1.461-1.634-.262-.45-.262-1.03-.587-1.426-.325-.396-.837-.486-1.117-.868-.14-.26-.26-.53-.357-.808a1.768 1.768 0 00-.606-.669.413.413 0 00.139-.31c0-.306-.304-.508-.569-.66a16.153 16.153 0 01-.999-.622c.355-.165.662-.416.894-.731.291-.47.412-1.026.341-1.574a1.987 1.987 0 00-.469-1.203c-.165-.176-.373-.302-.546-.467-.448-.438-.6-1.086-.786-1.684-.247-.786-.632-1.612-1.351-2.03-.346-.201-.75-.296-1.088-.508-.338-.213-.622-.614-.504-1 .079-.261.323-.442.488-.665a1.33 1.33 0 00-.333-1.836c-.194-.123-.433-.23-.472-.456a.835.835 0 01-.608-.645 2.484 2.484 0 010-.934l.202-1.458a.946.946 0 00.729 0c.226.368.49.713.786 1.028a10.258 10.258 0 011.836 3.186c.149.42.302.89.69 1.112.133.076.285.115.417.197.161.112.3.255.409.42.314.416.629.83.941 1.248l.016.063a.336.336 0 00.042.104.348.348 0 00.225.116c.965.223 2.048.427 2.885-.1.755-.472 1.086-1.405 1.725-2.03.454-.443 1.097-.786 1.225-1.41a4.63 4.63 0 01-.451-.166c.131-.13.262-.283.441-.456.259-.254.492-.532.697-.831.222-.37.398-.764.525-1.175a2182.5 2182.5 0 011.521-4.324c.241-.682.482-1.37.786-2.033.315-.718.687-1.408 1.031-2.113a28.003 28.003 0 002.04-5.743c.083-.27.111-.555.081-.837-.073-.453-.417-.81-.744-1.133a5.495 5.495 0 00-1.117-.925 1.842 1.842 0 00-1.401-.226c-.671.197-1.093.884-1.248 1.573-.155.69-.097 1.4-.163 2.098-.094 1.01-.44 1.986-.524 2.998-.045.584 0 1.177-.071 1.762a6.411 6.411 0 01-.787 2.171 14.046 14.046 0 01-3.39 4.18c-.16.134-.326.263-.483.407 0-.113.018-.228.034-.341-.114.03-.225.07-.333.118.013-.133 0-.266-.039-.393-.21-.627-1.144-.787-1.311-1.424a2.938 2.938 0 01-.045-.478c-.055-.558-.435-1.03-.566-1.573-.121-.5-.029-1.049-.263-1.513a4.207 4.207 0 00-.697-.787 3.098 3.098 0 01-.664-1.25c-.034-.13-.065-.263-.102-.391.04-.291.008-.588-.094-.863-.239-.593-.855-.973-1.078-1.574-.173-.467-.097-1.049-.425-1.41a1.533 1.533 0 00-.621-.375 13.838 13.838 0 00-3.743-.884c-.718-.066-1.51-.102-2.024-.609-.601-.587-.629-1.644-1.332-2.098-.619-.4-1.495-.104-1.975.46a2.43 2.43 0 00-.199.262 2.802 2.802 0 01-.055-1.076c0-.089.018-.18.026-.262a5.246 5.246 0 002.843-2.245v.016l.031.082c.076.19.197.375.375.395a.523.523 0 00.325-.118 2.695 2.695 0 00.624-.605 3.103 3.103 0 00.572-1.403c.047-.305.053-.617.105-.92.049-.236.113-.468.191-.696.027-.076.053-.152.076-.228l.084-.262c.165-.54.253-1.099.263-1.663v-.283a2.78 2.78 0 00-.881-1.954c-.452-.37-1.049-.524-1.38-1.025-.215-.336-.262-.768-.388-1.162a2.617 2.617 0 00-2.061-1.854 2.293 2.293 0 00-1.631.449l-.037.029a2.61 2.61 0 00-.65.723 2.157 2.157 0 01-.923-.524c-.263-.244-.465-.55-.729-.787a1.88 1.88 0 00-1.868-.393 2.234 2.234 0 00-1.334 1.529c-.145.54-.118 1.161-.42 1.612-.233.352-.616.525-.884.845a1.593 1.593 0 00-.33.7c-.032.144-.047.29-.045.438 0 .066 0 .131.016.194v.032a1.835 1.835 0 00.435.931 1.73 1.73 0 00.937.553l.312.07.11.027a5.22 5.22 0 00-.147 4.618c0 .073-.018.147-.026.22a18.155 18.155 0 00.136 3.092c.037.406.058.855-.191 1.177a2.23 2.23 0 01-.381.339c.142-.184.286-.365.433-.546-.37-.372-.954-.42-1.479-.383-1.015.076-2 .377-2.885.881-.587.339-1.19.787-1.861.709-.396-.045-.787-.263-1.173-.158a2.374 2.374 0 00-.6.357.816.816 0 01-.493.152c-.412-.506-1.049-.85-1.542-1.262a12.13 12.13 0 01-1.534-1.644 280.29 280.29 0 01-2.531-3.089c-.703-.87-1.424-1.812-1.547-2.926a2.646 2.646 0 01-.018-.334 8.42 8.42 0 01.199-1.573.79.79 0 000-.38c-.079-.262-.38-.36-.64-.417.034-.202.058-.41.071-.606.147-2.255-.013-4.547.464-6.755.181-.85.477-1.71 1.088-2.326.957-.968 2.56-1.201 3.294-2.347.614-.955.37-2.305-.401-3.147-.771-.842-1.959-1.185-3.089-1.143a1.594 1.594 0 00-.9.24 1.91 1.91 0 00-.545.83l-1.125 2.735a16.552 16.552 0 00-.824 2.197c-.314 1.149-.385 2.36-.634 3.52 0 .891-.575 2.003-.889 2.824-.352.923-.732 1.835-1.049 2.777-.079.236-.354.936-.525 1.573a.969.969 0 00-.178.134c-.137.175-.261.36-.372.553-.239.315-.627.483-.889.787-.263.304-.318.863.047 1.015.074.025.15.041.228.05a.892.892 0 01.142.023c.393.11.548.606.49 1.015-.058.41-.262.787-.296 1.196-.071.724.354 1.398.763 2.006.423.66.891 1.29 1.4 1.886.37.414.787.786 1.159 1.185 1.419 1.458 2.546 3.162 3.821 4.746.458.598.98 1.145 1.555 1.632.376.293.769.564 1.177.81l2.193 1.39a2.4 2.4 0 00.828.39c.098.014.197.014.294 0 .013.066.024.129.039.194.171.688.546 1.312.588 2.012.042.7-.021 1.416.029 2.124.047.653.191 1.311.228 1.954.073 1.237-.231 2.46-.525 3.671-.443 1.773-.71 3.582-1.573 5.19-.241.443-.525.894-.525 1.4 0 .06 0 .123.016.184l-.393.222a6.412 6.412 0 00-.336.2c-.498.325-1.03.684-1.235 1.245-.165.454-.089.973-.288 1.414-.01.02-.02.039-.032.058-.21.409-.627.713-.721 1.161-.071.344.066.708 0 1.05v.012c-.06.172-.107.347-.142.525a.671.671 0 00.016.173c.05.199.16.377.315.511.094.09.197.173.307.244.111.074.227.142.346.205l.068.036c.1.053.199.103.302.15l.068.029c.118.052.238.1.359.141l.084.026c.094.032.191.06.288.084l.066.021.06.013.262.056.097.018c.116.02.234.035.355.047h.104c.09 0 .176.013.263.016h.48c.123 0 .246-.018.369-.034h.04c.11-.016.22-.034.33-.058l.084-.018c.102-.024.204-.047.307-.079l.055-.016c.123-.036.246-.076.367-.123a9.724 9.724 0 001.212-.6c.262-.145.524-.291.786-.425.195-.098.394-.186.598-.263a3.376 3.376 0 011.574-.262c.265.036.528.09.786.16v.087c.214 1.258.424 2.517.632 3.776a7.748 7.748 0 011.086-.653 2.301 2.301 0 00-.139 1.06c.024.249.076.524-.073.72-.092.121-.263.19-.313.326a1.12 1.12 0 00-.026.427.68.68 0 01-.624.635.996.996 0 01-.396 1.17c-.11.052-.212.12-.304.199a.908.908 0 00-.176.396 7.002 7.002 0 01-2.053 3.375 6.613 6.613 0 00-1.015.991c-.186.283-.34.587-.459.905-.699 1.709-1.409 3.42-2.129 5.132-.399.957-.787 1.93-.913 2.96-.315 2.827-2.832 5.224-2.36 8.03.095.701.378 1.363.818 1.917.525.632 1.311.994 2.098 1.288 2.022.786 4.154 1.216 6.278 1.649l3.336.685c.654.15 1.318.255 1.988.314.805.055 1.631-.021 2.415.184.485.126.949.359 1.45.385.43.024.96-.068 1.214.284.254.351.058.815.299 1.127.388.496 1.335 0 1.757.467.115.179.204.374.262.579.064.127.154.24.262.331.026.148.037.298.032.448a7.758 7.758 0 01-.378 1.789l-.941 3.196c-.12.377-.207.763-.262 1.154-.02.19-.02.382 0 .572.055.58.388 1.177.941 1.366.429.114.886.057 1.275-.157a5.68 5.68 0 001.049-.708 7.19 7.19 0 001.513-1.558c1.311-1.961.886-4.615 1.806-6.784.611-1.448 1.802-2.622 2.198-4.149.093-.29.104-.6.031-.896-.165-.525-.723-.824-1.245-1.013h-.024a10.78 10.78 0 00-1.311-.375 7.127 7.127 0 00-.336-.06 2.061 2.061 0 01-.579-.755 1.786 1.786 0 00-.123-.454.483.483 0 00-.378-.21c-.262-.026-.614.069-.9.048-.584-.042-.972-.617-1.497-.882-.524-.264-1.093-.199-1.652-.16-.2.028-.403.015-.598-.036a2.255 2.255 0 01-.629-.433 2.636 2.636 0 00-2.311-.464 2.53 2.53 0 01-.786.178c-.512-.029-.874-.485-1.251-.831-1.033-.947-2.505-1.196-3.758-1.817a.856.856 0 01-.451-.389c-.144-.356.181-.713.475-.957l2.155-1.791c2.36-1.961 5.31-3.438 6.407-6.314.114-.386.291-.75.524-1.078.085-.1.183-.189.291-.262a2.204 2.204 0 011.613-.315 5.43 5.43 0 011.899.829c.938.568 1.852 1.18 2.74 1.835.88.629 1.716 1.316 2.504 2.056 1.377 1.311 2.523 2.866 3.805 4.28 1.283 1.413 2.749 2.732 4.529 3.409 1.781.677 3.934.648 5.463-.488 1.765-1.311 2.331-3.655 2.777-5.806.983-.949 1.279-2.394 1.759-3.671.302-.81.687-1.574 1.013-2.381.388-.95.692-1.93.996-2.908.345-.983.579-2 .698-3.034.126-1.634-.312-3.373.147-4.907.605-.134 1.156-.475 1.751-.674.887-.291 1.836-.244 2.775-.239h.06a1.43 1.43 0 00.923-.217c.315-.263.365-.71.38-1.117.037-1.005-.026-2.132-.778-2.783zm-37.996-44.732c-.217.053-.441.07-.664.047l.664-.047z" fill="url(#paint0_linear)"/><path d="M208.041 56.474c-.317.27-.69.467-1.091.58l-1.859.665c-1.01.362-2.064.727-3.129.596-.595-.074-3.146-.449-3.532-.913-.587-.718 1.471-1.775 2.174-2.381.159-.114.307-.245.441-.388.262-.32.228-.768.191-1.172a18.093 18.093 0 01-.136-3.087c.02-.246.055-.49.105-.732.262-1.206 1.384-.765 2.27-.445 1.067.346 2.099.793 3.082 1.334.299.155.559.376.76.646.388.587.234 1.358.171 2.098-.055.574-.053 1.125.307 1.541.18.16.346.335.495.525a.981.981 0 01-.249 1.133zM182.358 37.574c.262-1.161.319-2.36.634-3.511.222-.748.497-1.48.824-2.19l1.156-2.698a1.91 1.91 0 01.545-.826c.27-.167.583-.251.9-.241 1.13-.042 2.318.309 3.089 1.14.771.832 1.015 2.177.401 3.129-.734 1.146-2.336 1.377-3.293 2.342-.611.616-.908 1.473-1.089 2.32-.477 2.203-.317 4.487-.464 6.737-.047.7-.183 1.5-.787 1.862a2.29 2.29 0 01-1.174.228l-1.721.03c-.288 0-1.334.18-1.526-.038-.336-.38.43-2.273.569-2.695.31-.936.69-1.85 1.049-2.77.312-.82.887-1.93.887-2.819z" fill="#BE6F72"/><path d="M217.878 119.959c-.396 1.516-1.587 2.696-2.198 4.141-.92 2.163-.506 4.809-1.807 6.765a7.136 7.136 0 01-1.513 1.561c-.322.274-.674.51-1.049.705a1.724 1.724 0 01-1.274.158c-.554-.189-.887-.787-.942-1.364a2.847 2.847 0 010-.569c.055-.391.143-.776.263-1.151.314-1.062.628-2.124.941-3.189a7.72 7.72 0 00.378-1.783c.034-.661-.386-1.521-.208-2.138.082-.278.386-.524.525-.757a4.4 4.4 0 00.451-1.073c.215-.732.362-1.513.813-2.129a4.975 4.975 0 011.023-.958c.283-.248.615-.435.975-.548a2.399 2.399 0 011.049.05c.445.095.883.22 1.311.373h.024c.524.188 1.08.479 1.246 1.009.08.294.077.605-.008.897zM245.78 87.72c-.016.406-.066.86-.381 1.114a1.431 1.431 0 01-.923.218h-.07c-.937 0-1.889-.053-2.775.238-.674.223-1.293.632-1.995.714-.968.11-1.878-.42-2.736-.882a27.175 27.175 0 00-2.483-1.18c-.556-.228-1.691-.375-1.959-.983a8.83 8.83 0 01-.231-.876 2.842 2.842 0 00-.16-.385 2.214 2.214 0 01-.293-.868c.001-.306.106-.602.299-.84a2.51 2.51 0 011.717-.883 7.612 7.612 0 011.978.105l6.456.928c.498.07.999.142 1.489.262.466.081.905.273 1.28.561.763.64.826 1.765.787 2.757z" fill="#3F3D56"/><path d="M240.105 89.398c-.787 1.66-.22 3.624-.362 5.46a13.907 13.907 0 01-.698 3.026c-.304.975-.608 1.954-.996 2.9-.325.787-.711 1.574-1.012 2.376-.48 1.28-.787 2.719-1.76 3.671-.446 2.145-1.012 4.49-2.777 5.791-1.534 1.132-3.671 1.172-5.462.487-1.791-.684-3.247-1.995-4.529-3.409-1.283-1.413-2.429-2.953-3.805-4.269a23.727 23.727 0 00-2.51-2.053 39.304 39.304 0 00-2.74-1.82 5.468 5.468 0 00-1.899-.826 2.203 2.203 0 00-1.613.314 1.484 1.484 0 00-.291.263c-.233.326-.41.69-.524 1.075-1.102 2.869-4.057 4.342-6.417 6.299l-2.156 1.786c-.294.243-.619.6-.474.954a.855.855 0 00.451.388c1.253.619 2.724.868 3.757 1.812.378.346.74.803 1.251.829.27-.016.536-.075.787-.176a2.656 2.656 0 012.31.462c.184.179.397.325.63.433.195.051.398.064.598.036.558-.039 1.151-.089 1.652.16.501.249.912.837 1.497.879.286.021.627-.074.9-.048a.475.475 0 01.377.21c.061.144.103.296.123.451.108.37.47.596.706.9.362.467.414 1.101.378 1.691a7.222 7.222 0 01-2.298 4.831 2.84 2.84 0 01-1.413.786 1.311 1.311 0 01-1.401-.621 2.118 2.118 0 00-.262-.577c-.422-.464-1.369.029-1.757-.467-.241-.309-.068-.805-.299-1.125-.23-.32-.786-.262-1.214-.28-.501-.027-.965-.263-1.45-.386-.787-.204-1.61-.128-2.415-.183a14.685 14.685 0 01-1.988-.315l-3.336-.682c-2.124-.433-4.256-.871-6.278-1.644-.773-.294-1.552-.656-2.098-1.285a3.943 3.943 0 01-.818-1.915c-.474-2.798 2.043-5.189 2.36-8.008.113-1.028.525-1.999.913-2.953.712-1.706 1.421-3.414 2.129-5.122.115-.318.264-.622.446-.907a6.586 6.586 0 011.015-.988 6.975 6.975 0 002.053-3.368.908.908 0 01.176-.396c.093-.078.195-.144.304-.196a.994.994 0 00.396-1.167.68.68 0 00.624-.635 1.087 1.087 0 01.027-.425c.063-.136.22-.204.312-.325.149-.197.097-.472.073-.718a2.408 2.408 0 01.703-1.935c.627-.617 1.518-.457 2.384-.604a13.645 13.645 0 002.517-.805 24.735 24.735 0 017.109-1.644c2.45-.193 4.911.199 7.18 1.143.331.134.642.31.926.525.202.155.368.353.485.58.097.277.216.546.357.804.281.383.81.506 1.117.868.307.362.333.973.587 1.422.365.64 1.209.936 1.461 1.63.079.221.089.462.147.69.142.572.566 1.023.941 1.474a11.334 11.334 0 012.539 5.769c.084-1.33.978-2.507 2.098-3.24.301-.197.65-.415.71-.772.077-.45-.361-.852-.333-1.311.032-.224.123-.436.263-.614a19.353 19.353 0 011.641-2.063c.323-.355.685-.787.551-1.254-.102-.349-.459-.553-.656-.858a1.094 1.094 0 01.027-1.206c.183-.249.474-.43.563-.726.103-.349-.125-.727-.055-1.086.096-.287.287-.534.541-.7a4.47 4.47 0 011.172-.771c.692-.262 1.463-.165 2.197-.063 1.228.17 2.604.433 3.297 1.46.443.643.668 1.619.338 2.306z" fill="#65617D"/><path opacity=".1" d="M245.78 87.72c-.016.406-.066.86-.381 1.114a1.43 1.43 0 01-.923.218h-.07c.107-.546.771-.858.886-1.411a1.254 1.254 0 00-.288-.952c-.562-.758-1.464-1.178-2.361-1.484a15.635 15.635 0 00-7.883-.59 7.938 7.938 0 00-2.071.637 6.91 6.91 0 00-.63.446 2.214 2.214 0 01-.293-.868c.001-.306.106-.602.299-.84a2.522 2.522 0 011.717-.883 7.612 7.612 0 011.978.105l6.456.928c.498.07.999.141 1.489.262.466.081.905.273 1.28.561.771.64.834 1.765.795 2.757zM217.878 119.959c-.396 1.516-1.587 2.696-2.198 4.141-.92 2.163-.506 4.809-1.807 6.765a7.136 7.136 0 01-1.513 1.561c-.322.274-.674.51-1.049.705a1.72 1.72 0 01-1.274.157c-.554-.188-.887-.786-.942-1.363a2.847 2.847 0 010-.569l.016.042c.228.55.601 1.127 1.188 1.224a1.596 1.596 0 001.211-.427c.866-.695 1.369-1.731 1.849-2.73.376-.72.673-1.479.887-2.263.104-.446.154-.902.262-1.348.498-2.166 2.195-3.934 2.57-6.128.03-.151.037-.306.021-.459-.05-.2-.126-.392-.226-.572a2.822 2.822 0 01-.199-.635c.524.189 1.08.48 1.246 1.01.067.295.053.602-.042.889zM213.918 116.199a3.8 3.8 0 01-1.183 1.615 5.755 5.755 0 01-2.546 1.101c-.431.11-.883.105-1.311-.015-.583-.202-1.002-.748-1.597-.905-.425-.116-.882-.013-1.312-.076-.773-.108-1.374-.698-1.998-1.17-1.912-1.437-4.421-1.901-6.333-3.338a.584.584 0 01-.204-.212.628.628 0 01-.04-.297 6.023 6.023 0 01.575-2.52 8.8 8.8 0 011.08-1.539c1.712-2.098 3.433-4.212 5.483-5.982.86-.742 1.799-1.434 2.885-1.77.603-.186 1.794-.362 2.528-.047a1.479 1.479 0 00-.291.262c-.234.327-.411.69-.525 1.075-1.104 2.872-4.059 4.346-6.419 6.302l-2.156 1.786c-.294.244-.619.6-.474.954a.855.855 0 00.451.388c1.253.619 2.724.868 3.757 1.812.378.347.74.803 1.251.829.27-.016.536-.075.787-.176a2.656 2.656 0 012.31.462c.184.179.397.325.63.433.195.051.398.064.598.036.558-.039 1.151-.089 1.652.16.501.249.912.837 1.497.879.291.021.632-.079.905-.047z" fill="#000"/><path d="M189.8 80.608c-.498.32-1.028.681-1.233 1.237-.168.454-.089.973-.291 1.414-.202.44-.655.747-.755 1.22-.071.343.068.705 0 1.048-.059.179-.108.361-.144.546-.026.39.309.708.637.925a5.326 5.326 0 004.765.525c.7-.262 1.332-.69 2.003-1.025a3.965 3.965 0 012.159-.525c.432.047.847.205 1.279.262a1.346 1.346 0 001.199-.356c.133-.185.223-.397.262-.622.364-1.44.199-2.966-.147-4.413-.346-1.448-.871-2.84-1.24-4.28-.263-1.067-.464-2.16-.902-3.17-.438-1.01-1.175-1.949-2.206-2.334a.41.41 0 00-.262-.035.448.448 0 00-.171.126 8.058 8.058 0 00-1.798 3.027c-.412 1.256-.525 2.588-.903 3.85-.162.524-.372 1.226-.786 1.628-.415.4-.997.65-1.466.952z" fill="#3F3D56"/><path opacity=".1" d="M199.689 85.25a1.52 1.52 0 01-.276.62 1.326 1.326 0 01-1.198.355c-.43-.053-.844-.213-1.277-.262a3.953 3.953 0 00-2.158.524c-.672.336-1.311.753-2.006 1.023a5.295 5.295 0 01-3.181.18 5.137 5.137 0 01-1.574-.692c-.33-.215-.663-.524-.637-.925.037-.184.085-.365.144-.543.068-.344-.068-.706 0-1.05.1-.471.556-.786.755-1.221.2-.436.124-.957.289-1.411.204-.559.737-.918 1.235-1.24.498-.323 1.091-.57 1.49-.96.051-.061.098-.126.139-.194.287-.444.498-.932.624-1.445.385-1.264.49-2.594.899-3.852a8.072 8.072 0 011.802-3.024.388.388 0 01.168-.126.42.42 0 01.262.032c1.028.388 1.765 1.326 2.205 2.336.441 1.01.627 2.098.902 3.168.367 1.44.895 2.837 1.241 4.282.346 1.445.516 2.982.152 4.424zM207.488 53.267a5.245 5.245 0 01-6.388-2.885c.02-.246.055-.49.105-.731.262-1.207 1.384-.766 2.271-.446 1.066.346 2.098.793 3.081 1.334.299.155.559.375.76.646.388.58.234 1.35.171 2.082z" fill="#000"/><path d="M205.904 53.251a5.245 5.245 0 100-10.49 5.245 5.245 0 000 10.49z" fill="#BE6F72"/><path opacity=".1" d="M220.135 87.2c0 .436-.59.575-1.027.551-1.574-.092-3.113-.525-4.671-.393-1.969.178-3.779 1.266-5.753 1.366-.761.04-1.535-.074-2.285.066-.97.18-1.835.77-2.824.854-.857.074-1.704-.249-2.562-.215a4.116 4.116 0 00-1.712.488 2.408 2.408 0 01.703-1.466c.626-.616 1.518-.456 2.383-.603a13.662 13.662 0 002.518-.805 24.728 24.728 0 017.109-1.644 15.52 15.52 0 017.177 1.135c.331.134.642.31.926.525a.4.4 0 01.018.141z" fill="#000"/><path d="M203.478 57.583l-2.124-.787-.897-.33a4.335 4.335 0 00-1.143-.304c-1.028-.079-1.996.605-2.544 1.479-.548.873-.755 1.914-.931 2.929a79.634 79.634 0 00-.613 4.18 27.33 27.33 0 00-.276 3.813c.06 3.246.748 6.448 1.503 9.608.37 1.401.649 2.825.836 4.262.063.592.092 1.188.155 1.783.068.669.178 1.33.289 1.993l.632 3.768c.786-.558 1.68-1.049 2.648-1.078.858-.031 1.707.289 2.562.216.984-.082 1.854-.672 2.824-.853.75-.139 1.524-.029 2.287-.065 1.972-.1 3.784-1.19 5.751-1.367 1.56-.141 3.11.3 4.673.391.435.026 1.025-.113 1.025-.55 0-.305-.304-.507-.569-.659a28.101 28.101 0 01-3.553-2.536c-1.033-.818-2.082-1.657-2.793-2.764-1.712-2.661-1.125-6.262-2.585-9.07-1.188-2.282 0-5.271 0-7.844 0-1.282 0-2.58-.302-3.826a16.07 16.07 0 00-.703-2.045l-1.02-2.584a.426.426 0 00-.12-.196.404.404 0 00-.234-.07 2.46 2.46 0 00-1.694.542c-.48.39-.787.952-1.259 1.358-.516.449-1.182.842-1.825.606z" fill="#E3E8F4"/><path d="M206.906 56.094c.167-.719.348-1.466.828-2.028.48-.56 1.356-.857 1.975-.456.703.456.732 1.51 1.332 2.098.525.504 1.311.543 2.025.608 1.282.117 2.542.414 3.742.882.234.072.447.2.621.372.328.372.262.944.425 1.408.223.598.839.978 1.078 1.574.262.66 0 1.4-.22 2.08-.396 1.219-.646 2.485-1.031 3.71-.386 1.225-.934 2.43-1.836 3.354-.398.409-.991.787-1.515.543l-.202 1.455a2.47 2.47 0 000 .931.826.826 0 00.608.645c.039.226.278.333.472.457a1.31 1.31 0 01.333 1.835c-.165.223-.409.399-.488.664-.118.383.163.786.504.996.341.21.742.307 1.088.509.719.414 1.104 1.23 1.351 2.022.183.598.335 1.245.786 1.68.173.166.381.292.546.465.286.338.451.761.469 1.204a2.384 2.384 0 01-.341 1.573c-.524.75-1.502.973-2.36 1.311-1.392.572-2.538 1.594-3.766 2.465a4.008 4.008 0 01-1.717.808c-.85.113-1.686-.262-2.541-.296a6.31 6.31 0 00-1.516.199l-1.573.34c.083-1.219-.588-2.44-.963-3.602-.708-2.188-.839-4.527-.671-6.819.168-2.292.634-4.552 1.096-6.802.322-1.573.291-3.218.787-4.747.464-1.47 1.127-2.884 1.371-4.416.399-2.478-1.259-4.578-.697-7.022z" fill="#3F3D56"/><path d="M218.835 60.942a2.9 2.9 0 01.301.853c.122.462.349.889.664 1.248.264.233.498.497.697.787.242.456.15 1.012.263 1.51.131.543.511 1.015.566 1.574.002.16.017.32.045.477.17.634 1.104.787 1.311 1.421.139.412-.1.86-.055 1.293.032.134.04.272.023.41a.827.827 0 01-.299.382 6.031 6.031 0 00-1.725 3.07 17.493 17.493 0 00-.396 3.549l-1.025-1.356a1.562 1.562 0 00-.41-.42c-.131-.078-.283-.117-.417-.196-.388-.22-.54-.687-.689-1.107a10.213 10.213 0 00-1.836-3.178c-.417-.49-.902-.984-.994-1.62a3.028 3.028 0 01.047-.877c.263-1.717.543-3.477 1.38-5 .391-.714.897-1.359 1.272-2.083.251-.48.605-1.728 1.277-.737zM192.965 62.592a1.19 1.19 0 01-.163.63.823.823 0 01-.828.261 2.398 2.398 0 01-.829-.388c-.731-.461-1.461-.924-2.192-1.387a12.234 12.234 0 01-1.178-.808 10.534 10.534 0 01-1.555-1.628c-1.274-1.573-2.402-3.28-3.821-4.72-.385-.394-.786-.771-1.159-1.183a17.316 17.316 0 01-1.4-1.883c-.409-.606-.834-1.277-.763-2 .042-.41.239-.787.296-1.194.058-.406-.097-.902-.49-1.012a.892.892 0 00-.142-.024 1.074 1.074 0 01-.228-.05c-.364-.152-.309-.716-.047-1.012.262-.296.65-.461.889-.787.111-.192.235-.377.372-.553.176-.15.386-.256.611-.307a9.457 9.457 0 014.655-.175c.262.057.561.162.64.416a.779.779 0 010 .378 8.337 8.337 0 00-.199 1.574c-.001.11.005.22.018.33.123 1.112.844 2.053 1.547 2.921a277.615 277.615 0 002.531 3.082c.459.592.973 1.141 1.534 1.639.524.435 1.203.786 1.613 1.345.333.451.225 1.067.262 1.61a35.66 35.66 0 01.026 4.925z" fill="#3F3D56"/><path d="M226.269 73.532c.259-.251.493-.528.698-.826.22-.368.396-.762.524-1.172l1.521-4.314c.242-.681.483-1.366.787-2.03.315-.715.687-1.405 1.031-2.097a28.025 28.025 0 002.037-5.704c.083-.27.111-.555.081-.836-.073-.454-.417-.808-.744-1.13a5.483 5.483 0 00-1.117-.924 1.842 1.842 0 00-1.401-.225c-.671.196-1.093.883-1.248 1.573-.155.69-.097 1.395-.163 2.098-.094 1.007-.44 1.98-.524 2.99-.045.584 0 1.174-.071 1.756a6.418 6.418 0 01-.787 2.17 14.083 14.083 0 01-3.39 4.169c-.38.28-.722.61-1.018.978a3.205 3.205 0 00-.49 1.222 2.815 2.815 0 00.212 1.985c.428.73 1.248 1.05 2.033 1.212 1.059.22 1.303-.142 2.029-.895z" fill="#BE6F72"/><path d="M205.935 40.407a2.45 2.45 0 012.376-1.288 2.622 2.622 0 012.061 1.851c.124.391.173.824.388 1.16.326.505.929.652 1.38 1.02a2.761 2.761 0 01.881 1.95c.025.751-.093 1.5-.349 2.206-.108.301-.196.61-.262.923-.052.304-.058.614-.105.918a2.982 2.982 0 01-1.204 1.985.523.523 0 01-.325.118c-.204-.024-.33-.262-.406-.477-.417-1.204-.318-2.675-1.086-3.635a3.968 3.968 0 00-1.243-.926 1.598 1.598 0 00-.635-.238 1.668 1.668 0 00-.917.335 5.72 5.72 0 01-1.815.803 2.23 2.23 0 01-1.875-.404c-.362-.299-.627-.747-1.028-.98-.401-.234-.821-.221-1.217-.381a1.797 1.797 0 01-1.036-1.196 1.81 1.81 0 01.307-1.552c.262-.315.651-.493.884-.842.301-.451.275-1.07.419-1.61a2.215 2.215 0 011.335-1.524 1.876 1.876 0 011.867.391c.263.236.472.54.729.787a2.101 2.101 0 001.941.524" fill="#3F3D56"/><path opacity=".1" d="M210.246 79.005a1.012 1.012 0 00-.277 1.112c.057.123 2.763-.398 3.049-.438.714-.102 1.964-.052 2.444-.705.855-1.157-1.793-.9-2.278-.858-.924.079-2.235.205-2.938.89z" fill="#000"/><path d="M185.628 45.177a8.42 8.42 0 00-.2 1.573c-.786.16-1.605-.102-2.36-.364l-2.169-.74a.614.614 0 00-.828.155c-.349.362-.829 1.049-1.311 1.455a1.07 1.07 0 01-.229-.05c-.364-.152-.309-.716-.047-1.012.263-.296.651-.461.889-.787a4.75 4.75 0 01.373-.553c.175-.15.385-.256.611-.307a9.452 9.452 0 014.654-.175c.263.057.562.162.64.416a.764.764 0 01-.023.389z" fill="#3F3D56"/><path opacity=".1" d="M185.628 45.177a8.42 8.42 0 00-.2 1.573c-.786.16-1.605-.102-2.36-.364l-2.169-.74a.614.614 0 00-.828.155c-.349.362-.829 1.049-1.311 1.455a1.07 1.07 0 01-.229-.05c-.364-.152-.309-.716-.047-1.012.263-.296.651-.461.889-.787a4.75 4.75 0 01.373-.553c.175-.15.385-.256.611-.307a9.452 9.452 0 014.654-.175c.263.057.562.162.64.416a.764.764 0 01-.023.389zM205.466 94.963c.378.125.787.309.915.687l-3.037-.772-1.573-.4c-.278-.072-1.275-.153-1.458-.37-.262-.32.669-.1.836-.077a49.42 49.42 0 011.524.247c.955.17 1.872.451 2.793.684zM206.643 97.65c-.262-.175-1.014-.154-1.337-.23-.472-.113-.936-.263-1.4-.407-.942-.307-1.875-.655-2.843-.881-.178-.04-.787-.05-.758-.275.029-.226.608-.305.753-.315.857-.063 1.927.338 2.724.624 1.016.364 1.979.863 2.861 1.484zM204.719 92.566c-.963-.263-1.836-.86-2.827-.976a1.15 1.15 0 01-.722-.22.854.854 0 01-.233-.42c.664-.034 1.435.247 2.038.512.332.142.651.312.954.508.22.134.551.52.79.596z" fill="#000"/><path d="M223.065 69.085a4.582 4.582 0 003.215 5.069c-.129.621-.771.965-1.225 1.408-.64.622-.97 1.553-1.725 2.025-.842.524-1.925.32-2.885.1a.354.354 0 01-.226-.119.343.343 0 01-.042-.102c-.317-1.162-.524-2.402-.199-3.566.262-.992.892-1.836 1.395-2.712.504-.876.551-1.815 1.692-2.103zM199.618 54.048a6.819 6.819 0 00-2.885.879c-.587.335-1.19.786-1.862.705-.395-.044-.786-.262-1.172-.157a2.3 2.3 0 00-.6.356.68.68 0 01-.661.105l-.262 3.63c-.1 1.379-.197 2.787.133 4.133.171.687.546 1.31.588 2.008.042.698-.021 1.414.029 2.12.047.652.191 1.295.228 1.948.073 1.232-.231 2.454-.525 3.652-.443 1.768-.71 3.575-1.573 5.174-.241.444-.525.895-.525 1.398 0 .063 0 .123.016.184-.262.144-.506.28-.729.422-.498.322-1.03.682-1.235 1.24-.165.454-.089.973-.288 1.411-.2.438-.656.75-.756 1.222-.07.344.066.706 0 1.05a4.61 4.61 0 00-.144.542c-.026.393.307.71.637.926a5.134 5.134 0 001.574.692l1.565-6.215a50.037 50.037 0 003.548-8.253c.267-.932.61-1.84 1.026-2.716.297-.496.559-1.011.786-1.542.239-.661.263-1.377.378-2.075.137-.814.343-1.615.616-2.394.284-.842.611-1.68.669-2.565.087-1.264-.372-2.598.115-3.768a5.02 5.02 0 01.8-1.204c.677-.828 1.293-1.696 1.97-2.525-.352-.375-.937-.414-1.461-.383z" fill="#3F3D56"/><g opacity=".1" fill="#000"><path opacity=".1" d="M207.008 39.544l-.328.023-.037.027a1.93 1.93 0 00.365-.05zM213.008 44.988a7.045 7.045 0 01-.336 1.531 7.03 7.03 0 00-.262.923c-.052.305-.058.614-.105.918a2.983 2.983 0 01-1.204 1.985.523.523 0 01-.325.118c-.204-.023-.33-.262-.406-.477-.417-1.204-.318-2.675-1.086-3.635a3.97 3.97 0 00-1.243-.925 1.599 1.599 0 00-.635-.239 1.668 1.668 0 00-.917.336 5.723 5.723 0 01-1.815.802 2.228 2.228 0 01-1.875-.404c-.362-.299-.627-.747-1.028-.98-.401-.234-.821-.22-1.217-.38a1.795 1.795 0 01-1.023-1.17.677.677 0 01-.02-.1 1.796 1.796 0 001.043 2.056c.396.16.842.163 1.217.38.375.218.666.682 1.028.981a2.228 2.228 0 001.875.404 5.723 5.723 0 001.815-.803c.265-.2.585-.317.917-.335a1.6 1.6 0 01.635.239c.465.228.881.545 1.225.933.768.96.668 2.431 1.085 3.635.076.217.202.453.407.477a.52.52 0 00.343-.126 2.992 2.992 0 001.207-1.993c.047-.304.052-.614.105-.918.066-.313.153-.621.262-.923a5.915 5.915 0 00.349-2.205 2.115 2.115 0 01-.016-.105z"/></g><path d="M196.416 66.03l-.178 2.394c-.026.325-.648 8.066-5.232 17.114-3.933 7.76-11.588 17.866-26.04 23.546a54.455 54.455 0 01-3.511 1.248l-1.354-4.248a49.64 49.64 0 009.761-4.269c7.366-4.254 13.093-10.325 17.087-18.137a48.75 48.75 0 004.485-13.19h-16.443V66.03h21.425z" fill="#00BAFC"/><path opacity=".1" d="M163.196 109.087c14.449-5.68 22.106-15.785 26.037-23.544 4.584-9.047 5.208-16.783 5.232-17.114l.178-2.394h1.836l-.178 2.394c-.024.325-.648 8.067-5.232 17.114-3.934 7.76-11.588 17.864-26.038 23.544a55.517 55.517 0 01-3.514 1.25l-.178-.558a68.367 68.367 0 001.857-.692z" fill="#fff"/><path d="M134.266 106.084l-1.353 4.248a55.116 55.116 0 01-3.514-1.251c-14.45-5.68-22.107-15.784-26.038-23.543-4.584-9.047-5.208-16.784-5.232-17.114l-.178-2.394h21.414v4.458H102.92a48.766 48.766 0 004.498 13.19c3.994 7.812 9.718 13.883 17.085 18.134a49.525 49.525 0 009.763 4.272z" fill="#00BAFC"/><path opacity=".1" d="M131.166 109.087c-14.449-5.68-22.107-15.785-26.037-23.544-4.584-9.047-5.209-16.783-5.232-17.114l-.178-2.394h-1.836l.178 2.394c.024.325.648 8.067 5.232 17.114 3.933 7.76 11.588 17.864 26.037 23.544 1.128.445 2.299.862 3.514 1.25l.179-.558a73.748 73.748 0 01-1.857-.692z" fill="#fff"/><path d="M171.92 147.15v24.04h-49.476v-24.04l1.573-2.098c16.034-5.69 19.283-20.53 19.931-26.402.096-.811.151-1.627.165-2.444h6.118c.013.817.069 1.633.165 2.444.658 5.872 3.907 20.717 19.93 26.402l1.594 2.098z" fill="#00BAFC"/><path opacity=".1" d="M171.92 147.15h-49.476v3.016h49.476v-3.016z" fill="#000"/><path opacity=".1" d="M126.64 145.052c16.033-5.69 19.282-20.53 19.93-26.402.096-.811.151-1.627.165-2.444h-2.622a24.342 24.342 0 01-.165 2.444c-.659 5.872-3.908 20.717-19.931 26.402l-1.573 2.098v24.04h2.622v-24.04l1.574-2.098z" fill="#fff"/><path opacity=".1" d="M114.928 66.03h4.437v4.458h-4.043a113.428 113.428 0 01-.394-4.458zM134.266 106.084l-1.353 4.248a55.116 55.116 0 01-3.514-1.251 46.985 46.985 0 01-4.896-7.269 49.525 49.525 0 009.763 4.272zM160.099 106.084a49.658 49.658 0 009.76-4.269 47.18 47.18 0 01-4.896 7.272 55.465 55.465 0 01-3.511 1.248l-1.353-4.251zM179.434 66.03a115.38 115.38 0 01-.394 4.458h-4.041V66.03h4.435zM150.406 118.65a16.933 16.933 0 01-6.448 0c.096-.811.152-1.627.165-2.444h6.118c.014.817.069 1.633.165 2.444z" fill="#000"/><path d="M115.453 58.645c.113 33.058 14.273 59.79 31.731 59.79 17.457 0 31.615-26.732 31.73-59.79h-63.461z" fill="#00BAFC"/><path opacity=".1" d="M121.091 58.645h-5.638c.113 33.058 14.273 59.79 31.731 59.79a17.08 17.08 0 002.819-.238c-16.138-2.696-28.805-28.293-28.912-59.552z" fill="#fff"/><path d="M164.009 156.352h-33.653v8.654h33.653v-8.654z" fill="#3F3D56"/><path opacity=".1" d="M131.929 157.532h32.08v-1.18h-33.653v8.654h1.573v-7.474z" fill="#fff"/><path d="M97.505 90.562c-.605-.202-4.172-3.023-4.442-4.3-.27-1.278 1.885-13.175 1.885-13.175s-.199 0-.524-.04v-.191l.443-15.63s1.817-10.49-1.615-9.878c-3.433.611-1.28 9.878-1.28 9.878s-.39 4.705-.666 6.116c-.262 1.36-1.463 6.905-.645 8.627.03.062.063.121.1.179 0 0 .136 5.913-1.346 6.72-1.413.77-2 4.637-2.05 4.983l-.076-.031a4.11 4.11 0 01-1.094-1c-.031-.038-.055-.08-.084-.122a5.77 5.77 0 00-1.778-9.019 3.724 3.724 0 00-.349-1.447c-.681-1.458-4.458-3.365-7.14-3.41-1.238-.036-2.253.315-2.623 1.283-.189.49-.13 1.049-.21 1.558-.157 1.049-.83 1.87-1.696 2.522a10.63 10.63 0 00-1.13-1.088c-.876-.671-2.623-2.884-2.623-2.884s-5.452-5.646-5.856-7.194c-.404-1.547-5.85-10.838-7.062-9.22-1.211 1.618 4.172 8.67 4.172 8.67s1.023 2.562 1.81 3.427c.787.865 6.818 9.624 6.818 9.624l.289.598c-1.275.671-2.44 1.526-2.851 2.858-.603 1.962.716 3.934 1.628 5.77 1.778 3.582 2.033 8.15-.262 11.423-2.056 2.89-5.622 4.264-8.96 5.465a8.817 8.817 0 005.664 1.88c-.771 2.234-3.503 2.974-5.832 3.388 1.222 1.175 2.97 1.602 4.65 1.862.821.14 1.654.206 2.488.197h.204l.205-.016c.284-.019.567-.055.847-.108 1.212-.246 2.389-.907 3.008-1.977.524-.915.708-2.163 1.66-2.622.248-.112.515-.175.787-.186h-.03.54l3.969.039h.506c1.12-.026 2.315-.22 2.884-1.146a3.18 3.18 0 00.36-1.455c.084-1.257 0-2.55.034-3.816.338 2.305.692 5.898-.15 7.225a12.342 12.342 0 01-2.46 2.667c-.238.2-.456.423-.65.666-.128.091-.204.141-.204.141l-.082.244a4.617 4.617 0 00-.64 1.484c-.045.136-.062.28-.05.423.092.186-.655.954-.437 1.277-1.867 2.189-2.221 5.507-2.221 5.507l-3.41 5.176c-1.751 4.603-4.374 5.075-4.374 5.075s-6.16-4.133-6.328-4.335c-.167-.202-2.522-1.212-2.522-1.212a2.665 2.665 0 00-1.212-1.106c-.807-.336-.876-1.574-.876-1.574-.1-2.924-1.817-3.147-1.817-3.147-1.385-.118-2.441.129-3.254.58l-.247.018c-1.19.097-2.622.205-4.196.31-4.376.288-5.417 3.123-5.417 3.123s-.538.606.167 1.261c.706.656 5.222 0 5.413-.015a2.94 2.94 0 01-1.028-.071c.71-.026 1.689-.053 2.523-.053h.202c-.053.442-.078.887-.077 1.333 0 .839 2.321 1.376 2.321 1.376l7.068 6.294s4.442 1.985 7.269 4.841 5.326.391 5.326.391c2.992-.74 11.601-11.148 11.61-11.159 0 .305.18 10.427.524 12.459.013.103.039.205.076.302.404.873-.137 3.259-.37 4.266-.149.843-.206 1.7-.17 2.555 0 0-3.229 12.325-2.961 13.408.267 1.083-1.75 6.115-1.75 6.115v4.196l.352-.018a2.101 2.101 0 00-.126.21l-.023.044s2.153.469 3.6.336c1.448-.134 3.934 1.114 3.934 1.114s.841.399 3.432.567c2.591.168 2.591-1.144 2.591-1.144-.296-1.786-4.39-2.383-4.515-2.402a11.72 11.72 0 01-.895-.627l-.052-.041c.017-.04.032-.08.044-.121.438-1.783-1.985-2.557-1.985-2.557v-.435c1.574-.808 1.886-6.352 1.886-6.352s2.36-6.855 2.69-7.998c.33-1.143 0-2.856 0-2.856l.236-1.479s.507-1.007.507-1.209c.065-.511.262-.997.571-1.41.37-.438-.404-1.479-.404-1.479l.674-1.747v-1.917l1.574-6.954s1.65-8.101 1.078-10.752c-.572-2.651.674-3.999.674-3.999a3.367 3.367 0 01-.347.157c.158-.364.294-.737.407-1.117l3.54.438v.052h1.277s-.404-4.982-.404-6.991c0-2.009 1.361-9.218 1.361-9.218s.606-7.046 0-7.248zM81.79 84.746c0 .196-.018.4-.031.61l-.07.108-.132-.11-.16.25-.047.023c-.346-.178-.525-1.199-.774-.978l-.034.028c-.055-.062-.11-.08-.168-.028l-.052.044v-.233c.48.123.973.186 1.468.186.003.034 0 .068 0 .1zm11.775 23.202h.076l-.126.331.05-.331zm-12.926 59.468l-.482-.121.262-.044.244.16.029.021-.053-.016zm4.93-.705a6.843 6.843 0 01-.48-.281c.053.029.26.136.48.281z" fill="url(#paint1_linear)"/><path d="M95.305 102.995l-3.176 8.276h.771l-2.987 2.381 5.392.671v-11.328z" fill="#F86D70"/><path opacity=".1" d="M95.305 102.995l-3.176 8.276-.8-.215-1.415 2.596 5.391.671v-11.328z" fill="#000"/><path d="M90.325 108.289h4.98l1.828-15.039h-6.808v15.039z" fill="#F86D70"/><path opacity=".1" d="M90.325 108.289h4.98l1.828-15.039h-6.808v15.039z" fill="#000"/><path d="M80.599 96.811l1.075-.18 2.47-.42s7.419-1.673 8.95-1.81a9.566 9.566 0 002.686-.766c.4-.173.655-.304.655-.304l-2.672-4.88-4.146-3.073s-2.622-.559-3.732-2.085a2.457 2.457 0 01-.343-2.329c.677-2.098-4.041 2.006-4.041 2.006s.044.984 0 2.237c0 .247-.024.504-.042.766 0 .173-.024.346-.042.524-.115 1.246-.352 2.528-.818 3.294-1.141 1.873 0 7.02 0 7.02z" fill="#FBBEBE"/><path opacity=".1" d="M81.5 85.312h.106c.189 0 .34-.401.524-.42 1.477-.141 2.825-.45 3.76-1.497a2.46 2.46 0 01-.343-2.326c.677-2.098-4.04 2.004-4.04 2.004s.049.986-.006 2.24z" fill="#000"/><path d="M75.758 79.365a5.745 5.745 0 005.748 5.748c.189 0 .375 0 .561-.026a5.748 5.748 0 10-6.31-5.722z" fill="#FBBEBE"/><path d="M73.993 70.64c-.189.488-.131 1.033-.207 1.55-.28 1.864-2.177 2.981-3.892 3.763-1.715.781-3.65 1.707-4.196 3.509-.597 1.948.709 3.902 1.616 5.73 1.767 3.56 2.02 8.103-.262 11.36-2.028 2.884-5.56 4.253-8.885 5.454a8.763 8.763 0 005.625 1.873c-.763 2.221-3.477 2.958-5.79 3.367 1.214 1.169 2.953 1.594 4.618 1.851 1.214.189 2.46.312 3.671.068 1.212-.244 2.36-.902 2.984-1.967.525-.909.703-2.15 1.65-2.609a2.984 2.984 0 011.345-.196l3.934.042c1.224 0 2.675-.095 3.306-1.141a3.15 3.15 0 00.357-1.448c.17-2.58-.325-5.308.737-7.662.32-.711-1.733-1.836-1.518-2.589.74-2.588.925-4.626.918-7.319 0-2.084 1.355-3.88 2.475-5.64 1.12-1.76 2.056-3.981 1.172-5.87-.996-2.105-8.48-5.165-9.658-2.126z" fill="#3F3D56"/><path d="M79.23 166.661l1.002.663.154.103.03.018 1.187.787 2.775.467 2.438-.168s.703-1.469-.4-1.435a2.287 2.287 0 01-1.008-.291l-.152-.076a6.722 6.722 0 01-.477-.278 11.85 11.85 0 01-.886-.624c-.368-.283-.612-.498-.612-.498l-4.051 1.332z" fill="#FBBEBE"/><path opacity=".1" d="M80.245 167.324l.154.103.03.018 1.187.787 2.775.467 2.438-.168s.703-1.469-.4-1.435a2.287 2.287 0 01-1.008-.291c.194.152.357.317.373.456.044.375-1.804 1.049-1.804 1.049l-2.607-.689s-.443-.126-1.05-.283l-.057-.016-.031.002z" fill="#000"/><path d="M75.787 167.964s2.137.467 3.574.333c1.437-.134 3.913 1.104 3.913 1.104s.836.394 3.409.561c2.572.168 2.572-1.138 2.572-1.138-.293-1.775-4.358-2.36-4.484-2.386.05.026.262.134.477.278.289.189.6.435.624.635.045.372-1.804 1.049-1.804 1.049l-2.606-.688s-.444-.128-1.05-.285h-.057a22.315 22.315 0 00-2.733-.564c-1.122-.121-1.696.834-1.814 1.049a.314.314 0 00-.021.052z" fill="#3F3D56"/><path d="M42.1 120.806l1.135.871s.33-.016.824-.032h.157a73.299 73.299 0 012.504-.052 7.978 7.978 0 011.597.089c.567.199 1.574-3.241 1.574-3.241l-1.138-.263-.378-.089-.262-.063-.926-.217-2.806.32-1.972 1.269-.31 1.408z" fill="#FBBEBE"/><path opacity=".1" d="M42.1 120.806l1.135.871s.33-.016.824-.032a.993.993 0 01-.525-.469c-.734-2.038 2.908-2.908 2.908-2.908l1.697-.074.33-.016h.263l-.378-.089-.262-.063-.926-.217-2.806.32-1.972 1.269-.288 1.408z" fill="#000"/><path d="M39.86 121.727c.687.634 5.187 0 5.376-.016a2.85 2.85 0 01-1.02-.071 1.126 1.126 0 01-.787-.564c-.734-2.04 2.908-2.908 2.908-2.908l1.697-.073.328-.016 4.125-.179.2-1.135s-1.34.126-3.444.294c-1.183.097-2.622.204-4.178.307-4.345.288-5.378 3.107-5.378 3.107s-.527.603.173 1.254z" fill="#3F3D56"/><path d="M90.328 72.504c.028.063.061.122.1.179l1.001 1.468 2.607.263.029-1.034.438-15.545s1.804-10.427-1.605-9.826c-3.41.6-1.27 9.826-1.27 9.826s-.388 4.678-.66 6.084c-.265 1.358-1.453 6.88-.64 8.585zM84.477 111.116l.742 1.27 1.66 2.84s3.01 1.104 3.782.262c.422-.459.878-2.061 1.198-3.409.263-1.091.438-2.012.438-2.012l-7.82 1.049z" fill="#FBBEBE"/><path opacity=".1" d="M84.477 111.116l.742 1.27a.922.922 0 00.126-.134c.84-1.07 4.534-.228 6.514-.16.263-1.091.438-2.012.438-2.012l-7.82 1.036zM46.72 121.588a7.905 7.905 0 011.597.089c.567.199 1.574-3.242 1.574-3.242l-1.516-.356 4.125-.179.2-1.135s-1.34.126-3.444.294c-.434.25-.822.574-1.146.957l-.063.079c-.878 1.077-1.203 2.467-1.327 3.493zM79.23 166.661l1.156.766c1.726-.312 3.302-.803 3.488-1.574a.24.24 0 000-.036 13.65 13.65 0 01-.61-.499l-4.034 1.343zM75.81 167.92a40.1 40.1 0 004.547-.488 22.174 22.174 0 00-2.735-.569c-1.12-.121-1.694.834-1.812 1.057z" fill="#000"/><path d="M46.846 122.912c0 .836 2.305 1.371 2.305 1.371l7.02 6.249s4.411 1.972 7.217 4.812c2.806 2.84 5.282.402 5.282.402 2.973-.735 11.538-11.096 11.538-11.096s.2 11.833.6 12.701c.402.868-.133 3.241-.367 4.245a11.81 11.81 0 00-.167 2.539s-3.208 12.264-2.94 13.334c.267 1.07-1.739 6.084-1.739 6.084v4.178s7.854-.302 8.287-2.072c.433-1.77-1.97-2.541-1.97-2.541v-.435c1.574-.803 1.87-6.315 1.87-6.315s2.342-6.818 2.675-7.954c.333-1.135 0-2.842 0-2.842l.234-1.469s.5-1.004.5-1.204a2.97 2.97 0 01.57-1.402c.367-.436-.402-1.472-.402-1.472l.669-1.738v-1.904l1.573-6.918s1.64-8.056 1.07-10.697c-.569-2.64.669-3.975.669-3.975-2.683 1.405-4.036-1.723-4.479-3.068-.113-.347-.168-.577-.168-.577s-3.684-1.359-7.114-1.034a8.205 8.205 0 00-2.043.433c-3.81 1.372-4.411 7.052-4.411 7.052l-3.375 5.148c-1.739 4.578-4.345 5.045-4.345 5.045s-6.116-4.109-6.294-4.311c-.178-.202-2.507-1.204-2.507-1.204a2.644 2.644 0 00-1.204-1.101c-.802-.336-.868-1.574-.868-1.574-.1-2.908-1.804-3.147-1.804-3.147-5.916-.493-5.882 5.623-5.882 6.457z" fill="#3F3D56"/><path d="M80.869 106.572h3.608V95.377H80.87v11.195z" fill="#F86D70"/><path opacity=".1" d="M80.869 106.572h3.608V95.377H80.87v11.195zM90.325 72.48v.024c.028.063.061.122.1.179l1.002 1.468 2.606.263.03-1.034c-.814-.063-2.665-.285-3.738-.9z" fill="#000"/><path d="M90.427 72.683s.134 5.88-1.337 6.682c-1.471.802-2.043 4.982-2.043 4.982s4.458 2.932 5.452 4.222c.994 1.29 3.276 4.364 2.806 5.098-.47.734 1.138 4.078 1.138 4.078s-2.942 6.016-2.273 8.289c.668 2.274.734 8.287.734 8.287h1.272s-.401-4.946-.401-6.952c0-2.006 1.334-9.157 1.334-9.157s.604-7.018 0-7.217c-.603-.2-4.143-3.008-4.41-4.28-.268-1.272 1.872-13.112 1.872-13.112s-2.74-.118-4.144-.92z" fill="#F86D70"/><path opacity=".1" d="M80.8 94.338c.123.819.42 1.6.874 2.292l2.47-.42s7.419-1.672 8.95-1.809a9.562 9.562 0 002.686-.765 11.843 11.843 0 00-3.318-5.442l-.941-.873a15.773 15.773 0 00-4.746-3.034c.11.092 7.893 6.737 6.188 8.04-1.704 1.303-6.293-1.87-6.293-1.87l-5.219-4.484-.189-.162-.301.469c.153.063.303.135.448.215a7.679 7.679 0 013.671 4.563c1.073 3.606-4.28 3.28-4.28 3.28z" fill="#000"/><path d="M79.196 111.048s4.946 2.741 6.147 1.204c.262-.338.815-.485 1.505-.525-.113-.346-.168-.577-.168-.577s-3.684-1.358-7.114-1.033l-.37.931z" fill="#444053"/><path d="M81.472 85.816l5.407 4.652s4.571 3.183 6.294 1.87c1.723-1.314-6.191-8.043-6.191-8.043a15.996 15.996 0 014.743 3.026l.942.873c2.475 2.295 3.034 2.295 3.118 5.667.021.831-.262 2.025-.48 2.24-.802.786-1.364 6.5-1.24 7.169.123.669-1.495 6.441-.97 8.046.524 1.605-6.556-.803-7.755.737-1.198 1.539-6.144-1.204-6.144-1.204s2.74-7.02 3.409-7.487c.669-.467 1.471-4.078 0-5.748s-1.602-3.276-1.602-3.276 5.35.33 4.277-3.275a7.567 7.567 0 00-4.112-4.778l.304-.47z" fill="#E8E8F0"/><path opacity=".1" d="M88.689 97.648s-2.074 3.91-4.757 4.925c-.087.031-.17.06-.262.086-2.801.852 5.229-3.8 5.019-5.011z" fill="#000"/><path d="M59.68 63.056s1.002 2.541 1.804 3.41c.803.867 6.75 9.558 6.75 9.558l.504 1.049.433.894 3.81-.401.262-1.537-.147-.178c-.383-.46-1.426-1.692-2.127-2.23-.868-.665-2.606-2.87-2.606-2.87s-5.413-5.618-5.814-7.155c-.401-1.536-5.816-10.752-7.017-9.157-1.202 1.594 4.148 8.617 4.148 8.617z" fill="#FBBEBE"/><g opacity=".1" fill="#000"><path opacity=".1" d="M70.736 104.393a2.97 2.97 0 00-1.345.194c-.944.459-1.123 1.699-1.647 2.609-.614 1.065-1.783 1.723-2.987 1.967-.24.046-.48.079-.724.099a8.23 8.23 0 002.297-.099c1.204-.244 2.374-.902 2.987-1.967.525-.91.703-2.15 1.647-2.609.248-.112.515-.174.787-.184l-1.015-.01zM80.05 84.276c0-2.084 1.356-3.88 2.474-5.64 1.117-1.76 2.056-3.981 1.172-5.87-.755-1.612-5.308-3.776-7.936-3.348 2.573.333 5.744 2.027 6.362 3.349.884 1.888-.055 4.109-1.172 5.869-1.117 1.76-2.478 3.556-2.473 5.64 0 2.69-.18 4.72-.92 7.32-.213.747 1.835 1.877 1.52 2.585-1.064 2.36-.566 5.082-.736 7.663-.004.504-.127 1-.36 1.447-.524.863-1.599 1.086-2.645 1.133h.915c1.222 0 2.672-.094 3.304-1.141.233-.447.356-.943.36-1.447.17-2.58-.328-5.305.736-7.663.32-.708-1.733-1.835-1.52-2.585.739-2.58.925-4.621.92-7.312z"/></g><path opacity=".1" d="M68.738 77.067l.433.895 3.81-.402.262-1.536-.147-.179c-.406.2-3.45 1.666-4.358 1.222z" fill="#000"/><path opacity=".1" d="M82.807 87.119s-.936-1.469-1.471-1.07-.742-1.204-1.05-.936c-.306.267-1.2 1.012-1.573-.029-.29-.829-3.459-6.07-4.744-8.18-.33-.545-.537-.88-.537-.88s-3.609 1.804-4.477 1.203v1.27l.735.068 3.933 7.342s1.238 1.97 1.154 2.657c-.084.687 1.587 3.695 1.854 3.894.268.2 3.147 3.543 3.147 3.543s1.471 7.219.2 9.225c-1.272 2.007-3.475 3.475-3.475 3.475s-.664 1.938-.567 2.14c.097.202-.77 1.07-.37 1.337.402.268.937 2.138.937 2.138s1.872-3.008 2.884-3.475c1.013-.467 2.308-6.619 2.308-6.619s.37-3.624.399-5.963c.028-2.34-.09-11.14.713-11.14z" fill="#000"/><path d="M82.605 87.119s-.934-1.469-1.469-1.07-.744-1.204-1.048-.936c-.305.267-1.199 1.012-1.574-.029-.294-.829-3.462-6.07-4.744-8.18l-.537-.88s-3.609 1.804-4.48 1.203v1.27l.737.068 3.934 7.342s1.24 1.97 1.154 2.657c-.087.687 1.573 3.695 1.854 3.894.28.2 3.147 3.543 3.147 3.543s1.47 7.219.202 9.225a12.306 12.306 0 01-2.42 2.681 4.677 4.677 0 00-1.574 2.522.995.995 0 00-.047.42c.097.199-.771 1.07-.37 1.337.401.268.941 2.145.941 2.145s1.873-3.007 2.885-3.474c1.012-.467 2.31-6.619 2.31-6.619s.367-3.624.399-5.963c.031-2.34-.087-11.156.7-11.156z" fill="#F86D70"/><path opacity=".1" d="M73.448 117.533s2.808.525 3.933 1.335c1.125.81-4.277-1.269-4.277-1.269l.344-.066zM80.2 124.651s2.93 2.441 2.405 4.646c-.525 2.206-1.878 7.755-1.878 7.755l-.527-12.401zM54.582 119.956s-4.127.451-3.86.986c.267.535 3.86-.493 3.86-.493v-.493zM86.276 140.259s.262.333-1.269 0c-1.532-.333-.401-1.361-.401-1.361l1.67 1.361zM85.752 144.872s-2.098.333-3.223 0 3.223 0 3.223 0zM81.435 162.919s-.367-.401-2.205.333-2.573.768-3.108.524c-.535-.244 5.313-.857 5.313-.857zM83.475 119.387l-2.606 3.627s1.403-3.176 2.606-3.627zM78.41 86.049s-.114 1.204-1.795 1.673c-1.68.47-2 .85-2 .85M74.04 77.324s-2.218 1.574-4.534 1.24l4.534-1.24zM75.729 111.014s.648.407 2.203-1.371l-2.203 1.371zM91.88 92.162c.063-.325-.162-.627-.375-.881l-.435-.525a2.01 2.01 0 00-.286-.293c-.262-.203-.598-.263-.87-.444" fill="#000"/><path opacity=".1" d="M232.681.743s-22.078-1.332-19.482 14.14c0 0-.524 2.735 1.962 3.976 0 0 .039-1.147 2.266-.756.792.132 1.597.17 2.399.116a4.998 4.998 0 002.932-1.212s6.207-2.565 8.62-12.708c0 0 1.786-2.213 1.715-2.782l-3.727 1.591s1.275 2.688.263 4.923c0 0-.121-4.825-.837-4.72-.144.023-1.935.93-1.935.93s2.189 4.681.537 8.085c0 0 .627-5.77-1.222-7.746L223.55 6.11s2.559 4.836.823 8.782c0 0 .446-6.052-1.376-8.41l-2.376 1.855s2.404 4.767.938 8.04c0 0-.191-7.047-1.452-7.579 0 0-2.08 1.836-2.397 2.586 0 0 1.647 3.461.624 5.286 0 0-.627-4.694-1.141-4.72 0 0-2.071 3.11-2.287 5.245 0 0 .09-3.17 1.786-5.539 0 0-2.003.344-3.173 1.642 0 0 .323-2.197 3.685-2.389 0 0 1.712-2.36 2.168-2.504 0 0-3.341-.278-5.368.619 0 0 1.784-2.075 5.982-1.13l2.347-1.918s-4.4-.6-6.267.063c0 0 2.147-1.835 6.899-.498l2.554-1.526s-3.752-.808-5.987-.525c0 0 2.361-1.271 6.737.108l1.836-.82s-2.748-.541-3.553-.628c-.805-.086-.847-.306-.847-.306a9.531 9.531 0 015.163.574s3.881-1.432 3.813-1.676zM205.45 4.68s-9.965-.604-8.798 6.387c0 0-.233 1.238.884 1.8 0 0 .018-.525 1.025-.344.358.06.721.078 1.083.052.49-.033.955-.225 1.325-.548 0 0 2.806-1.156 3.896-5.74 0 0 .805-1.002.774-1.259l-1.684.719s.577 1.216.124 2.226c0 0-.055-2.182-.378-2.13-.065 0-.876.42-.876.42s.991 2.116.244 3.656c0 0 .283-2.607-.553-3.501l-1.186.692s1.16 2.185.373 3.968c0 0 .202-2.735-.622-3.8l-1.072.847s1.085 2.156.425 3.632c0 0-.087-3.183-.659-3.422 0 0-.938.829-1.083 1.17 0 0 .745 1.573.284 2.386 0 0-.284-2.122-.525-2.13 0 0-.933 1.406-1.033 2.36.047-.89.325-1.753.808-2.504a2.822 2.822 0 00-1.435.742s.147-.99 1.665-1.08c0 0 .787-1.065.981-1.13 0 0-1.51-.126-2.426.28 0 0 .805-.938 2.704-.524l1.049-.866s-1.988-.262-2.832.03c0 0 .97-.83 3.118-.226l1.154-.69s-1.694-.367-2.707-.233c0 0 1.068-.577 3.045.047l.826-.37s-1.243-.246-1.607-.283c-.365-.037-.383-.14-.383-.14a4.299 4.299 0 012.334.263s1.77-.648 1.738-.758z" fill="#00BAFC"/><path d="M240.26 171.368c5.823 0 10.544-.798 10.544-1.783 0-.985-4.721-1.783-10.544-1.783-5.824 0-10.545.798-10.545 1.783 0 .985 4.721 1.783 10.545 1.783z" fill="#00BAFC"/><path d="M244.621 166.669a3.056 3.056 0 001.004-1.519c.131-.6-.126-1.311-.703-1.544-.645-.247-1.335.202-1.856.653-.522.451-1.123.968-1.805.871a2.754 2.754 0 00.85-2.573 1.083 1.083 0 00-.236-.525c-.359-.382-1.007-.22-1.437.082-1.364.96-1.744 2.814-1.752 4.479-.136-.601-.021-1.227-.023-1.836-.003-.608-.173-1.311-.695-1.634a2.073 2.073 0 00-1.049-.246c-.611-.024-1.296.039-1.713.488-.524.556-.385 1.489.066 2.098.451.608 1.141.999 1.775 1.421.508.303.941.716 1.267 1.209.039.069.071.142.094.217h3.845c.859-.437 1.656-.99 2.368-1.641z" fill="#00BAFC"/></g><defs><linearGradient id="paint0_linear" x1="212.022" y1="133.126" x2="212.022" y2="27.628" gradientUnits="userSpaceOnUse"><stop stop-color="gray" stop-opacity=".25"/><stop offset=".54" stop-color="gray" stop-opacity=".12"/><stop offset="1" stop-color="gray" stop-opacity=".1"/></linearGradient><linearGradient id="paint1_linear" x1="10450.5" y1="65713.5" x2="23402.9" y2="65713.5" gradientUnits="userSpaceOnUse"><stop stop-color="gray" stop-opacity=".25"/><stop offset=".54" stop-color="gray" stop-opacity=".12"/><stop offset="1" stop-color="gray" stop-opacity=".1"/></linearGradient><clipPath id="clip0"><path fill="#fff" transform="translate(0 .714)" d="M0 0h300v171.115H0z"/></clipPath></defs></svg>